<?xml version="1.0" encoding="utf-8"?>
<!-- Generator: Adobe Illustrator 18.0.0, SVG Export Plug-In . SVG Version: 6.00 Build 0)  -->
<!DOCTYPE svg PUBLIC "-//W3C//DTD SVG 1.1//EN" "http://www.w3.org/Graphics/SVG/1.1/DTD/svg11.dtd">
<svg version="1.1" id="Capa_1" xmlns="http://www.w3.org/2000/svg" xmlns:xlink="http://www.w3.org/1999/xlink" x="0px" y="0px"
	 viewBox="0 0 17.5 17.2" enable-background="new 0 0 17.5 17.2" xml:space="preserve">
<path fill="#FFFFFF" d="M17.1,14.2L13.8,11c0.6-1.1,1-2.3,1-3.6c0-4.1-3.3-7.4-7.4-7.4S0,3.3,0,7.4c0,4.1,3.3,7.4,7.4,7.4
	c1.5,0,2.9-0.5,4.1-1.3l3.1,3.1c0.3,0.3,0.8,0.5,1.2,0.5c0.4,0,0.9-0.2,1.2-0.5C17.7,16,17.7,14.9,17.1,14.2z M2.3,7.4
	c0-2.8,2.3-5.1,5.1-5.1c2.8,0,5.1,2.3,5.1,5.1c0,2.8-2.3,5.1-5.1,5.1C4.6,12.5,2.3,10.2,2.3,7.4z"/>
</svg>
