<?xml version="1.0" encoding="utf-8"?>
<!-- Generator: Adobe Illustrator 18.0.0, SVG Export Plug-In . SVG Version: 6.00 Build 0)  -->
<!DOCTYPE svg PUBLIC "-//W3C//DTD SVG 1.1//EN" "http://www.w3.org/Graphics/SVG/1.1/DTD/svg11.dtd">
<svg version="1.1" id="Capa_1" xmlns="http://www.w3.org/2000/svg" xmlns:xlink="http://www.w3.org/1999/xlink" x="0px" y="0px"
	 viewBox="0 0 23.3 18.9" enable-background="new 0 0 23.3 18.9" xml:space="preserve">
<path fill="#BEC7CE" d="M20.9,4.7c0,0.2,0,0.4,0,0.6c0,6.3-4.8,13.6-13.6,13.6c-2.7,0-5.2-0.8-7.3-2.1c0.4,0,0.8,0.1,1.1,0.1
	c2.2,0,4.3-0.8,5.9-2c-2.1,0-3.8-1.4-4.5-3.3c0.3,0.1,0.6,0.1,0.9,0.1c0.4,0,0.4-0.1,0.8-0.2C2.2,11,0.1,9,0.1,6.7c0,0,0,0,0-0.1
	C1.3,7,1.9,7.2,2.7,7.2c-1.3-0.9-1.9-2.3-1.9-4c0-0.9,0.3-1.7,0.8-2.4c2.4,2.9,5.9,4.8,9.9,5c-0.1-0.3-0.1-0.7-0.1-1.1
	c0-2.6,2.2-4.8,4.8-4.8c1.4,0,2.6,0.6,3.5,1.5c1.1-0.2,2.1-0.6,3-1.2c-0.4,1.1-1.1,2.1-2.1,2.6c1-0.1,1.9-0.4,2.7-0.8
	C22.6,3.2,21.8,4,20.9,4.7z"/>
</svg>
