<?xml version="1.0" encoding="utf-8"?>
<!-- Generator: Adobe Illustrator 18.0.0, SVG Export Plug-In . SVG Version: 6.00 Build 0)  -->
<!DOCTYPE svg PUBLIC "-//W3C//DTD SVG 1.1//EN" "http://www.w3.org/Graphics/SVG/1.1/DTD/svg11.dtd">
<svg version="1.1" id="Capa_1" xmlns="http://www.w3.org/2000/svg" xmlns:xlink="http://www.w3.org/1999/xlink" x="0px" y="0px"
	 viewBox="0 0 330 120" enable-background="new 0 0 330 120" xml:space="preserve">
<path id="White_5_" fill="#BEC7CE" d="M28.3,0H1.7C0.7,0,0,0.7,0,1.7v26.7C0,29.3,0.7,30,1.7,30H16V18h-4v-4h4v-3.5
	c0-3.9,2.2-6,5.7-6c1.7,0,3.3,0.1,3.3,0.2V9h-2.1C21.1,9,21,9.7,21,11v3h4.2l-0.6,4H21v12h7.3c0.9,0,1.7-0.7,1.7-1.7V1.7
	C30,0.7,29.3,0,28.3,0z"/>
<path fill="#BEC7CE" d="M59.9,1.7c0-1-0.7-1.7-1.7-1.7H31.7c-1,0-1.7,0.7-1.7,1.7v26.6c0,0.9,0.7,1.7,1.7,1.7h26.6
	c0.9,0,1.7-0.7,1.7-1.7L59.9,1.7L59.9,1.7z M53.3,11.3c0,0.2,0,0.3,0,0.5c0,5-3.8,10.7-10.7,10.7c-2.1,0-4.1-0.6-5.8-1.7
	c0.3,0,0.6,0.1,0.9,0.1c1.8,0,3.4-0.6,4.7-1.6c-1.6,0-3-1.1-3.5-2.6c0.2,0,0.5,0.1,0.7,0.1c0.3,0,0.3,0,0.7-0.1
	C38.7,16.3,37,14.8,37,13l0,0c1,0.3,1.4,0.5,2,0.5c-1-0.7-1.5-1.8-1.5-3.1c0-0.7,0.3-1.3,0.6-1.9c1.9,2.3,4.7,3.8,7.8,3.9
	c-0.1-0.3-0.1-0.6-0.1-0.9c0-2.1,1.7-3.8,3.8-3.8c1.1,0,2.1,0.5,2.8,1.2C53.2,8.7,54,8.4,54.7,8c-0.3,0.9-0.9,1.6-1.7,2.1
	c0.8-0.1,1.5-0.3,2.2-0.6C54.7,10.1,54,10.7,53.3,11.3z"/>
<path fill="#BEC7CE" d="M89.9,1.7c0-1-0.7-1.7-1.7-1.7H61.7c-1,0-1.7,0.7-1.7,1.7v26.6c0,0.9,0.7,1.7,1.7,1.7h26.6
	c0.9,0,1.7-0.7,1.7-1.7L89.9,1.7L89.9,1.7z M70,19.5c-2.4,0-4.3-1.9-4.3-4.3S67.6,11,70,11c2.4,0,4.3,1.9,4.3,4.3
	C74.3,17.5,72.4,19.5,70,19.5z M80.4,19.5c-2.4,0-4.3-1.9-4.3-4.3S78,11,80.4,11s4.3,1.9,4.3,4.3C84.7,17.5,82.8,19.5,80.4,19.5z"/>
<g>
	<path fill="#BEC7CE" d="M119.9,1.7c0-0.9-0.7-1.7-1.7-1.7H91.7c-1,0-1.7,0.7-1.7,1.7v26.6c0,0.9,0.7,1.7,1.7,1.7h26.6
		c0.9,0,1.7-0.7,1.7-1.7L119.9,1.7L119.9,1.7z M114.9,15.1c0,1.6-0.1,3.2-0.1,3.2s-0.1,1.4-0.7,2c-0.8,0.8-1.6,0.8-2,0.8
		c-2.8,0.2-6.9,0.2-6.9,0.2s-5.1,0-6.7-0.2c-0.4-0.1-1.4-0.1-2.2-0.8c-0.6-0.6-0.5-2-0.5-2s0.1-1.6,0.1-3.2v-1.5
		c0-1.6-0.1-3.2-0.1-3.2s0-1.4,0.6-2c0.8-0.8,1.5-0.8,1.9-0.9c2.8-0.2,6.8-0.2,6.8-0.2l0,0c0,0,4.1,0,6.9,0.2c0.4,0,1.2,0.1,2,0.9
		c0.6,0.6,0.7,2,0.7,2s0.1,1.6,0.1,3.2L114.9,15.1L114.9,15.1z"/>
	<g>
		<g id="Lozenge_9_">
			<g>
				<polygon fill="#BEC7CE" points="103.3,11.4 103.3,16.9 108.5,14.1 				"/>
			</g>
		</g>
	</g>
</g>
<g>
	<path fill="#BEC7CE" d="M135,18c1.7,0,3-1.4,3-3c0-0.7-0.2-1.3-0.6-1.8c-0.5-0.8-1.4-1.3-2.4-1.3s-1.9,0.5-2.4,1.3
		c-0.4,0.5-0.6,1.1-0.6,1.8C132,16.7,133.3,18,135,18z"/>
	<path fill="#BEC7CE" d="M139.7,14.8c0,2.6-2.1,4.8-4.7,4.8c-2.6,0-4.7-2.2-4.7-4.7c0-0.6,0.1-0.9,0.3-1.9H128v7.3
		c0,0.9,0.8,1.7,1.7,1.7h10.5c0.9,0,1.7-0.8,1.7-1.7V13h-2.7C139.6,14,139.7,14.2,139.7,14.8z"/>
	<path fill="#BEC7CE" d="M149.9,2c0-1-0.7-2-1.7-2h-26.5c-1,0-1.7,0.7-1.7,1.7v26.6c0,0.9,0.7,1.7,1.7,1.7h26.6
		c0.9,0,1.7-0.7,1.7-1.7L149.9,2L149.9,2z M144,13.2v7c0,1.8-1.9,3.7-3.7,3.7h-10.5c-1.8,0-3.7-1.9-3.7-3.7v-7V9.7
		c0-1.8,1.9-3.7,3.7-3.7h10.5c1.8,0,3.7,1.9,3.7,3.7V13.2z"/>
	<polygon fill="#BEC7CE" points="138.9,8.4 138.9,11.3 142,11.3 142,8.8 142,8.4 141.4,8.4 	"/>
</g>
<path fill="#BEC7CE" d="M239.9,2c0-1-0.7-2-1.7-2h-26.5c-1,0-1.7,0.7-1.7,1.7v26.6c0,0.9,0.7,1.7,1.7,1.7h26.6
	c0.9,0,1.7-0.7,1.7-1.7L239.9,2L239.9,2z M220,23h-3V12h3V23z M218.5,10.9c-1.2,0-2-0.8-2-1.9s0.8-1.9,2-1.9s2,0.8,2,1.9
	S219.8,10.9,218.5,10.9z M234,23h-4v-5.7c0-1.4-0.7-2.4-2-2.4c-1,0-1.6,0.6-1.9,1.3c-0.1,0.2-0.1,0.6-0.1,0.9v6h-3.7
	c0,0,0.1-10,0-11h3.7v1.8c0-0.7,1.7-1.8,3.5-1.8c2.4,0,4.5,1.5,4.5,4.8V23z"/>
<path fill="#BEC7CE" d="M179.9,2c0-1-0.7-2-1.7-2h-26.5c-1,0-1.7,0.7-1.7,1.7v26.6c0,0.9,0.7,1.7,1.7,1.7h26.6
	c0.9,0,1.7-0.7,1.7-1.7L179.9,2L179.9,2z M165,24.5c-0.9,0-1.8-0.1-2.7-0.4c0.4-0.6,0.8-1.3,1-2c0.1-0.4,0.7-2.6,0.7-2.6
	c0.3,0.6,1.3,1.2,2.3,1.2c3,0,5.1-2.8,5.1-6.5c0-2.8-2.4-5.4-6-5.4c-4.5,0-6.8,3.2-6.8,5.9c0,1.6,0.6,3.1,1.9,3.6
	c0.2,0.1,0.4,0,0.5-0.2c0-0.2,0.1-0.6,0.2-0.8c0.1-0.2,0-0.3-0.1-0.5c-0.4-0.5-0.6-1-0.6-1.9c0-2.4,1.8-4.5,4.7-4.5
	c2.5,0,3.9,1.6,3.9,3.6c0,2.7-1.2,5-3,5c-1,0-1.7-0.8-1.5-1.8c0.3-1.2,0.8-2.5,0.8-3.4c0-0.8-0.4-1.4-1.3-1.4c-1,0-1.8,1-1.8,2.4
	c0,0.9,0.3,1.5,0.3,1.5s-1,4.4-1.2,5.2c-0.2,0.7-0.2,1.5-0.2,2.2c-3.3-1.5-5.7-4.8-5.7-8.7c0-5.2,4.2-9.5,9.5-9.5
	c5.2,0,9.5,4.2,9.5,9.5C174.5,20.2,170.2,24.5,165,24.5z"/>
<path fill="#BEC7CE" d="M299.9,2c0-1-0.7-2-1.7-2h-26.5c-1,0-1.7,0.7-1.7,1.7v26.6c0,0.9,0.7,1.7,1.7,1.7h26.6
	c0.9,0,1.7-0.7,1.7-1.7L299.9,2L299.9,2z M287.2,22.4c-1,1-2.2,1.5-3.7,1.5c-1.4,0-2.6-0.4-3.7-1.1c-1.1-0.8-1.9-1.9-2.5-3.4l0,0
	c0-0.2-0.1-0.3-0.1-0.5c0-1,0.9-1.9,1.9-1.9c1.1,0,1.9,0.9,1.9,1.9c0,0.5-0.2,1-0.6,1.4c0.8,0.9,1.7,1.3,2.9,1.3
	c0.8,0,1.5-0.2,2.1-0.7c0.5-0.5,0.8-1.1,0.8-1.9c0-0.4-0.1-0.9-0.4-1.4c-0.3-0.5-0.6-0.8-1.1-1.1c-0.4-0.3-1.1-0.6-2-1
	c-0.9-0.4-1.6-0.7-2.2-1c-0.5-0.3-0.9-0.7-1.3-1.1c-0.4-0.4-0.6-0.9-0.8-1.3c-0.2-0.4-0.3-0.9-0.3-1.4c0-1.2,0.5-2.2,1.4-3
	c1-0.8,2.1-1.3,3.5-1.3c0.9,0,1.8,0.2,2.8,0.6c0.8,0.3,1.4,0.8,2,1.4c0.4,0.3,0.7,0.9,0.7,1.4c0,1.1-0.9,1.9-1.9,1.9
	c-1.1,0-1.9-0.9-1.9-1.9c0-0.3,0.1-0.5,0.2-0.8c-0.4-0.2-0.9-0.3-1.6-0.3c-0.8,0-1.5,0.2-2,0.6c-0.5,0.4-0.8,0.8-0.8,1.4
	c0,0.5,0.2,0.9,0.7,1.3c0.4,0.4,1.2,0.8,2.3,1.3c1.1,0.5,1.9,0.9,2.5,1.3c0.6,0.4,1.1,0.8,1.5,1.3c0.4,0.5,0.7,1,0.9,1.5
	c0,0,0,0.1,0,0.1c-0.8,0.7-1.3,1.7-1.3,2.8c0,0.7,0.2,1.3,0.5,1.8C287.5,22.1,287.4,22.2,287.2,22.4z M290.4,22.3
	c-1.2,0-2.2-1-2.2-2.2s1-2.2,2.2-2.2c1.2,0,2.2,1,2.2,2.2C292.6,21.3,291.7,22.3,290.4,22.3z"/>
<path fill="#BEC7CE" d="M329.9,2c0-1-0.7-2-1.7-2h-26.5c-1,0-1.7,0.7-1.7,1.7v26.6c0,0.9,0.7,1.7,1.7,1.7h26.6
	c0.9,0,1.7-0.7,1.7-1.7L329.9,2L329.9,2z M305.3,18.1C305.3,18.2,305.3,18.2,305.3,18.1c-0.1,0.1-0.2,0-0.2,0L305,17l0.1-1.1
	c0,0,0-0.1,0.1-0.1c0,0,0.1,0,0.1,0.1l0.2,1.1L305.3,18.1z M306,18.8C306,18.8,306,18.9,306,18.8c-0.1,0.1-0.2,0-0.2,0l-0.2-1.8
	c0,0,0.2-1.8,0.2-1.8c0,0,0-0.1,0.1-0.1s0.1,0,0.1,0.1l0.2,1.8L306,18.8z M306.9,19.1c0,0.1,0,0.1-0.1,0.1c-0.1,0-0.1,0-0.1-0.1
	l-0.2-2.1c0,0,0.2-2.1,0.2-2.1c0-0.1,0-0.1,0.1-0.1c0.1,0,0.1,0,0.1,0.1l0.2,2.1L306.9,19.1z M307.7,19.2c0,0.1-0.1,0.1-0.1,0.1
	c-0.1,0-0.1,0-0.1-0.1l-0.2-2.1l0.2-2.2c0-0.1,0.1-0.1,0.1-0.1c0.1,0,0.1,0,0.1,0.1l0.2,2.2L307.7,19.2z M308.5,19.2L308.5,19.2
	c0,0.1-0.1,0.1-0.1,0.1c-0.1,0-0.1-0.1-0.1-0.1L308,17l0.2-2c0-0.1,0.1-0.1,0.1-0.1c0.1,0,0.1,0.1,0.1,0.1l0.2,2L308.5,19.2z
	 M309.3,19.2L309.3,19.2c0,0.1-0.1,0.1-0.2,0.1c-0.1,0-0.1-0.1-0.2-0.1l-0.2-2.1l0.2-3.3c0-0.1,0.1-0.1,0.2-0.1
	c0.1,0,0.1,0.1,0.2,0.1l0.2,3.3L309.3,19.2z M310,19.2L310,19.2c0,0.1,0,0.2-0.1,0.2s-0.1-0.1-0.1-0.2l-0.1-2.1l0.2-4.1
	c0-0.1,0.1-0.2,0.2-0.2c0.1,0,0.2,0.1,0.2,0.2l0.1,4.1L310,19.2z M311,19.1L311,19.1c0,0.1-0.1,0.2-0.2,0.2c-0.1,0-0.2-0.1-0.2-0.2
	l-0.1-2.1l0.1-4.4c0-0.1,0.1-0.2,0.2-0.2c0.1,0,0.2,0.1,0.2,0.2l0.2,4.4L311,19.1z M311.8,19.1L311.8,19.1c0,0.1-0.1,0.2-0.2,0.2
	c-0.1,0-0.2-0.1-0.2-0.2l-0.1-2.1l0.1-4.5c0-0.1,0.1-0.2,0.2-0.2c0.1,0,0.2,0.1,0.2,0.2l0.1,4.5L311.8,19.1z M313,19.1L313,19.1
	c0,0.1-0.3,0.2-0.4,0.2c-0.1,0-0.3-0.1-0.3-0.2l-0.2-2.1l0.1-4.4c0-0.1,0.1-0.2,0.2-0.2c0.1,0,0.2,0.1,0.2,0.2L313,17L313,19.1z
	 M314,19.1L314,19.1c0,0.1-0.4,0.2-0.5,0.2c-0.1,0-0.4-0.1-0.4-0.2L313,17l0.1-4.3c0-0.1,0.1-0.2,0.2-0.2c0.1,0,0.2,0.1,0.2,0.2
	l0.4,4.3L314,19.1z M314,19.1L314,19.1c0,0.1,0.1,0.3-0.1,0.3c-0.1,0-0.2-0.1-0.2-0.3c0,0,0-2,0-2l0.1-5.1c0-0.1,0.1-0.3,0.3-0.3
	c0.1,0,0.3,0.1,0.3,0.3l-0.1,5.1L314,19.1z M315,19.1L315,19.1c0,0.1,0,0.3-0.2,0.3s-0.2-0.1-0.2-0.3l-0.1-2l0.1-5.5
	c0-0.1,0.1-0.3,0.3-0.3c0.1,0,0.3,0.1,0.3,0.3l0,5.5L315,19.1z M322.5,19.3c0,0-7,0-7,0c-0.1,0-0.5-0.1-0.5-0.3v-7.8
	c0-0.1,0.3-0.2,0.5-0.3c0.5-0.2,1.1-0.3,1.7-0.3c2.3,0,4.2,1.7,4.4,4c0.3-0.1,0.6-0.2,1-0.2c1.4,0,2.5,1.1,2.5,2.5
	S323.9,19.3,322.5,19.3z"/>
<path fill="#BEC7CE" d="M209.9,2c0-1-0.7-2-1.7-2h-26.5c-1,0-1.7,0.7-1.7,1.7v26.6c0,0.9,0.7,1.7,1.7,1.7h26.6
	c0.9,0,1.7-0.7,1.7-1.7L209.9,2L209.9,2z M203.7,11.1c-1,5.4-6.3,9.9-7.9,11c-1.6,1-3.1-0.4-3.6-1.5c-0.6-1.3-2.4-8.1-2.9-8.6
	c-0.5-0.6-1.9,0.6-1.9,0.6l-0.7-0.9c0,0,2.9-3.5,5.1-3.9c2.3-0.5,2.3,3.6,2.9,5.8c0.5,2.2,0.9,3.4,1.4,3.4c0.5,0,1.4-1.2,2.4-3.1
	c1-1.9,0-3.5-2-2.3C197.3,6.9,204.7,5.8,203.7,11.1z"/>
<g>
	<path fill="#BEC7CE" d="M269.9,2c0-1-0.7-2-1.7-2h-26.5c-1,0-1.7,0.7-1.7,1.7v26.6c0,0.9,0.7,1.7,1.7,1.7h26.6
		c0.9,0,1.7-0.7,1.7-1.7L269.9,2L269.9,2z M264.6,15.2c-0.7,0.8-1.9,1.8-3.8,2.5c2,6.8-4.7,7.9-4.7,4.4c0,0.1,0-1.8,0-3.3
		c0,0-0.5-0.1-0.7-0.1c0,0-0.3,0-0.3,0c0,1.4,0,3.5,0,3.4c0,3.5-6.6,2.4-4.6-4.4c-1.9-0.7-2.9-1.7-3.6-2.5c-0.3-0.5,0.2-1,0.7-0.6
		c0.1,0-0.6,0.1,0.4,0.1v-7c0-1,0.3-1.7,1.2-1.7H262c0.9,0,2,0.7,2,1.7v6.9c0,0,0,0,0,0C264.6,14.2,264.9,14.8,264.6,15.2z"/>
	<path fill="#BEC7CE" d="M261.3,7H250c-1.1,0-1,0.2-1,1.5v6.8c2,1.3,4.2,1.1,5.4,1c0.2,0,0.2,0,0.4,0c0.1,0,0.3,0.1,0.5,0.3
		c0.2,0.2,0.4,0.4,0.6,0.5c0-0.6,0.4-0.9,1.2-0.8c1.2,0.1,2.8,0.3,5.8-1.1V8.5C263,7.4,262.4,7,261.3,7z M253.1,15.5
		c-1.2,0-2.2-0.9-2.2-2.1s1-2.1,2.2-2.1c1.3,0,2.2,0.9,2.2,2.1S254.3,15.5,253.1,15.5z M258.3,15.5c-1.2,0-2.2-0.9-2.2-2.1
		s1-2.1,2.2-2.1s2.2,0.9,2.2,2.1S259.5,15.5,258.3,15.5z"/>
</g>
<path id="White_2_" fill="#FFFFFF" d="M28.3,30H1.7c-1,0-1.7,0.7-1.7,1.7v26.7C0,59.3,0.7,60,1.7,60H16V48h-4v-4h4v-3.5
	c0-3.9,2.2-6,5.7-6c1.7,0,3.3,0.1,3.3,0.2V39h-2.1c-1.8,0-1.9,0.7-1.9,2v3h4.2l-0.6,4H21v12h7.3c0.9,0,1.7-0.7,1.7-1.7V31.7
	C30,30.7,29.3,30,28.3,30z"/>
<path fill="#FFFFFF" d="M59.9,31.7c0-1-0.7-1.7-1.7-1.7H31.7c-1,0-1.7,0.7-1.7,1.7v26.6c0,0.9,0.7,1.7,1.7,1.7h26.6
	c0.9,0,1.7-0.7,1.7-1.7L59.9,31.7L59.9,31.7z M53.3,41.3c0,0.2,0,0.3,0,0.5c0,5-3.8,10.7-10.7,10.7c-2.1,0-4.1-0.6-5.8-1.7
	c0.3,0,0.6,0.1,0.9,0.1c1.8,0,3.4-0.6,4.7-1.6c-1.6,0-3-1.1-3.5-2.6c0.2,0,0.5,0.1,0.7,0.1c0.3,0,0.3,0,0.7-0.1
	C38.7,46.3,37,44.8,37,43l0,0c1,0.3,1.4,0.5,2,0.5c-1-0.7-1.5-1.8-1.5-3.1c0-0.7,0.3-1.3,0.6-1.9c1.9,2.3,4.7,3.8,7.8,3.9
	c-0.1-0.3-0.1-0.6-0.1-0.9c0-2.1,1.7-3.8,3.8-3.8c1.1,0,2.1,0.5,2.8,1.2c0.9-0.2,1.7-0.5,2.4-0.9c-0.3,0.9-0.9,1.6-1.7,2.1
	c0.8-0.1,1.5-0.3,2.2-0.6C54.7,40.1,54,40.7,53.3,41.3z"/>
<path fill="#FFFFFF" d="M89.9,31.7c0-1-0.7-1.7-1.7-1.7H61.7c-1,0-1.7,0.7-1.7,1.7v26.6c0,0.9,0.7,1.7,1.7,1.7h26.6
	c0.9,0,1.7-0.7,1.7-1.7L89.9,31.7L89.9,31.7z M70,49.5c-2.4,0-4.3-1.9-4.3-4.3S67.6,41,70,41c2.4,0,4.3,1.9,4.3,4.3
	C74.3,47.5,72.4,49.5,70,49.5z M80.4,49.5c-2.4,0-4.3-1.9-4.3-4.3S78,41,80.4,41s4.3,1.9,4.3,4.3C84.7,47.5,82.8,49.5,80.4,49.5z"/>
<g>
	<path fill="#FFFFFF" d="M119.9,31.7c0-0.9-0.7-1.7-1.7-1.7H91.7c-1,0-1.7,0.7-1.7,1.7v26.6c0,0.9,0.7,1.7,1.7,1.7h26.6
		c0.9,0,1.7-0.7,1.7-1.7L119.9,31.7L119.9,31.7z M114.9,45.1c0,1.6-0.1,3.2-0.1,3.2s-0.1,1.4-0.7,2c-0.8,0.8-1.6,0.8-2,0.8
		c-2.8,0.2-6.9,0.2-6.9,0.2s-5.1,0-6.7-0.2c-0.4-0.1-1.4-0.1-2.2-0.8c-0.6-0.6-0.5-2-0.5-2s0.1-1.6,0.1-3.2v-1.5
		c0-1.6-0.1-3.2-0.1-3.2s0-1.4,0.6-2c0.8-0.8,1.5-0.8,1.9-0.9c2.8-0.2,6.8-0.2,6.8-0.2l0,0c0,0,4.1,0,6.9,0.2c0.4,0,1.2,0.1,2,0.9
		c0.6,0.6,0.7,2,0.7,2s0.1,1.6,0.1,3.2L114.9,45.1L114.9,45.1z"/>
	<g>
		<g id="Lozenge_1_">
			<g>
				<polygon fill="#FFFFFF" points="103.3,41.4 103.3,46.9 108.5,44.1 				"/>
			</g>
		</g>
	</g>
</g>
<g>
	<path fill="#FFFFFF" d="M135,48c1.7,0,3-1.4,3-3c0-0.7-0.2-1.3-0.6-1.8c-0.5-0.8-1.4-1.3-2.4-1.3s-1.9,0.5-2.4,1.3
		c-0.4,0.5-0.6,1.1-0.6,1.8C132,46.7,133.3,48,135,48z"/>
	<path fill="#FFFFFF" d="M139.7,44.8c0,2.6-2.1,4.8-4.7,4.8c-2.6,0-4.7-2.2-4.7-4.7c0-0.6,0.1-0.9,0.3-1.9H128v7.3
		c0,0.9,0.8,1.7,1.7,1.7h10.5c0.9,0,1.7-0.8,1.7-1.7V43h-2.7C139.6,44,139.7,44.2,139.7,44.8z"/>
	<path fill="#FFFFFF" d="M149.9,32c0-1-0.7-2-1.7-2h-26.5c-1,0-1.7,0.7-1.7,1.7v26.6c0,0.9,0.7,1.7,1.7,1.7h26.6
		c0.9,0,1.7-0.7,1.7-1.7L149.9,32L149.9,32z M144,43.2v7c0,1.8-1.9,3.7-3.7,3.7h-10.5c-1.8,0-3.7-1.9-3.7-3.7v-7v-3.5
		c0-1.8,1.9-3.7,3.7-3.7h10.5c1.8,0,3.7,1.9,3.7,3.7V43.2z"/>
	<polygon fill="#FFFFFF" points="138.9,38.4 138.9,41.3 142,41.3 142,38.8 142,38.4 141.4,38.4 	"/>
</g>
<path fill="#FFFFFF" d="M239.9,32c0-1-0.7-2-1.7-2h-26.5c-1,0-1.7,0.7-1.7,1.7v26.6c0,0.9,0.7,1.7,1.7,1.7h26.6
	c0.9,0,1.7-0.7,1.7-1.7L239.9,32L239.9,32z M220,53h-3V42h3V53z M218.5,40.9c-1.2,0-2-0.8-2-1.9s0.8-1.9,2-1.9s2,0.8,2,1.9
	S219.8,40.9,218.5,40.9z M234,53h-4v-5.7c0-1.4-0.7-2.4-2-2.4c-1,0-1.6,0.6-1.9,1.3c-0.1,0.2-0.1,0.6-0.1,0.9v6h-3.7
	c0,0,0.1-10,0-11h3.7v1.8c0-0.7,1.7-1.8,3.5-1.8c2.4,0,4.5,1.5,4.5,4.8V53z"/>
<path fill="#FFFFFF" d="M179.9,32c0-1-0.7-2-1.7-2h-26.5c-1,0-1.7,0.7-1.7,1.7v26.6c0,0.9,0.7,1.7,1.7,1.7h26.6
	c0.9,0,1.7-0.7,1.7-1.7L179.9,32L179.9,32z M165,54.5c-0.9,0-1.8-0.1-2.7-0.4c0.4-0.6,0.8-1.3,1-2c0.1-0.4,0.7-2.6,0.7-2.6
	c0.3,0.6,1.3,1.2,2.3,1.2c3,0,5.1-2.8,5.1-6.5c0-2.8-2.4-5.4-6-5.4c-4.5,0-6.8,3.2-6.8,5.9c0,1.6,0.6,3.1,1.9,3.6
	c0.2,0.1,0.4,0,0.5-0.2c0-0.2,0.1-0.6,0.2-0.8c0.1-0.2,0-0.3-0.1-0.5c-0.4-0.5-0.6-1-0.6-1.9c0-2.4,1.8-4.5,4.7-4.5
	c2.5,0,3.9,1.6,3.9,3.6c0,2.7-1.2,5-3,5c-1,0-1.7-0.8-1.5-1.8c0.3-1.2,0.8-2.5,0.8-3.4c0-0.8-0.4-1.4-1.3-1.4c-1,0-1.8,1-1.8,2.4
	c0,0.9,0.3,1.5,0.3,1.5s-1,4.4-1.2,5.2c-0.2,0.7-0.2,1.5-0.2,2.2c-3.3-1.5-5.7-4.8-5.7-8.7c0-5.2,4.2-9.5,9.5-9.5
	c5.2,0,9.5,4.2,9.5,9.5C174.5,50.2,170.2,54.5,165,54.5z"/>
<path fill="#FFFFFF" d="M299.9,32c0-1-0.7-2-1.7-2h-26.5c-1,0-1.7,0.7-1.7,1.7v26.6c0,0.9,0.7,1.7,1.7,1.7h26.6
	c0.9,0,1.7-0.7,1.7-1.7L299.9,32L299.9,32z M287.2,52.4c-1,1-2.2,1.5-3.7,1.5c-1.4,0-2.6-0.4-3.7-1.1c-1.1-0.8-1.9-1.9-2.5-3.4l0,0
	c0-0.2-0.1-0.3-0.1-0.5c0-1,0.9-1.9,1.9-1.9c1.1,0,1.9,0.9,1.9,1.9c0,0.5-0.2,1-0.6,1.4c0.8,0.9,1.7,1.3,2.9,1.3
	c0.8,0,1.5-0.2,2.1-0.7c0.5-0.5,0.8-1.1,0.8-1.9c0-0.4-0.1-0.9-0.4-1.4c-0.3-0.5-0.6-0.8-1.1-1.1c-0.4-0.3-1.1-0.6-2-1
	c-0.9-0.4-1.6-0.7-2.2-1c-0.5-0.3-0.9-0.7-1.3-1.1c-0.4-0.4-0.6-0.9-0.8-1.3c-0.2-0.4-0.3-0.9-0.3-1.4c0-1.2,0.5-2.2,1.4-3
	c1-0.8,2.1-1.3,3.5-1.3c0.9,0,1.8,0.2,2.8,0.6c0.8,0.3,1.4,0.8,2,1.4c0.4,0.3,0.7,0.9,0.7,1.4c0,1.1-0.9,1.9-1.9,1.9
	c-1.1,0-1.9-0.9-1.9-1.9c0-0.3,0.1-0.5,0.2-0.8c-0.4-0.2-0.9-0.3-1.6-0.3c-0.8,0-1.5,0.2-2,0.6c-0.5,0.4-0.8,0.8-0.8,1.4
	c0,0.5,0.2,0.9,0.7,1.3c0.4,0.4,1.2,0.8,2.3,1.3c1.1,0.5,1.9,0.9,2.5,1.3c0.6,0.4,1.1,0.8,1.5,1.3c0.4,0.5,0.7,1,0.9,1.5
	c0,0,0,0.1,0,0.1c-0.8,0.7-1.3,1.7-1.3,2.8c0,0.7,0.2,1.3,0.5,1.8C287.5,52.1,287.4,52.2,287.2,52.4z M290.4,52.3
	c-1.2,0-2.2-1-2.2-2.2s1-2.2,2.2-2.2c1.2,0,2.2,1,2.2,2.2C292.6,51.3,291.7,52.3,290.4,52.3z"/>
<path fill="#FFFFFF" d="M329.9,32c0-1-0.7-2-1.7-2h-26.5c-1,0-1.7,0.7-1.7,1.7v26.6c0,0.9,0.7,1.7,1.7,1.7h26.6
	c0.9,0,1.7-0.7,1.7-1.7L329.9,32L329.9,32z M305.3,48.1C305.3,48.2,305.3,48.2,305.3,48.1c-0.1,0.1-0.2,0-0.2,0L305,47l0.1-1.1
	c0,0,0-0.1,0.1-0.1c0,0,0.1,0,0.1,0.1l0.2,1.1L305.3,48.1z M306,48.8C306,48.8,306,48.9,306,48.8c-0.1,0.1-0.2,0-0.2,0l-0.2-1.8
	c0,0,0.2-1.8,0.2-1.8c0,0,0-0.1,0.1-0.1s0.1,0,0.1,0.1l0.2,1.8L306,48.8z M306.9,49.1c0,0.1,0,0.1-0.1,0.1c-0.1,0-0.1,0-0.1-0.1
	l-0.2-2.1c0,0,0.2-2.1,0.2-2.1c0-0.1,0-0.1,0.1-0.1c0.1,0,0.1,0,0.1,0.1l0.2,2.1L306.9,49.1z M307.7,49.2c0,0.1-0.1,0.1-0.1,0.1
	c-0.1,0-0.1,0-0.1-0.1l-0.2-2.1l0.2-2.2c0-0.1,0.1-0.1,0.1-0.1c0.1,0,0.1,0,0.1,0.1l0.2,2.2L307.7,49.2z M308.5,49.2L308.5,49.2
	c0,0.1-0.1,0.1-0.1,0.1c-0.1,0-0.1-0.1-0.1-0.1L308,47l0.2-2c0-0.1,0.1-0.1,0.1-0.1c0.1,0,0.1,0.1,0.1,0.1l0.2,2L308.5,49.2z
	 M309.3,49.2L309.3,49.2c0,0.1-0.1,0.1-0.2,0.1c-0.1,0-0.1-0.1-0.2-0.1l-0.2-2.1l0.2-3.3c0-0.1,0.1-0.1,0.2-0.1
	c0.1,0,0.1,0.1,0.2,0.1l0.2,3.3L309.3,49.2z M310,49.2L310,49.2c0,0.1,0,0.2-0.1,0.2s-0.1-0.1-0.1-0.2l-0.1-2.1l0.2-4.1
	c0-0.1,0.1-0.2,0.2-0.2c0.1,0,0.2,0.1,0.2,0.2l0.1,4.1L310,49.2z M311,49.1L311,49.1c0,0.1-0.1,0.2-0.2,0.2c-0.1,0-0.2-0.1-0.2-0.2
	l-0.1-2.1l0.1-4.4c0-0.1,0.1-0.2,0.2-0.2c0.1,0,0.2,0.1,0.2,0.2l0.2,4.4L311,49.1z M311.8,49.1L311.8,49.1c0,0.1-0.1,0.2-0.2,0.2
	c-0.1,0-0.2-0.1-0.2-0.2l-0.1-2.1l0.1-4.5c0-0.1,0.1-0.2,0.2-0.2c0.1,0,0.2,0.1,0.2,0.2l0.1,4.5L311.8,49.1z M313,49.1L313,49.1
	c0,0.1-0.3,0.2-0.4,0.2c-0.1,0-0.3-0.1-0.3-0.2l-0.2-2.1l0.1-4.4c0-0.1,0.1-0.2,0.2-0.2c0.1,0,0.2,0.1,0.2,0.2L313,47L313,49.1z
	 M314,49.1L314,49.1c0,0.1-0.4,0.2-0.5,0.2c-0.1,0-0.4-0.1-0.4-0.2L313,47l0.1-4.3c0-0.1,0.1-0.2,0.2-0.2c0.1,0,0.2,0.1,0.2,0.2
	l0.4,4.3L314,49.1z M314,49.1L314,49.1c0,0.1,0.1,0.3-0.1,0.3c-0.1,0-0.2-0.1-0.2-0.3c0,0,0-2,0-2l0.1-5.1c0-0.1,0.1-0.3,0.3-0.3
	c0.1,0,0.3,0.1,0.3,0.3l-0.1,5.1L314,49.1z M315,49.1L315,49.1c0,0.1,0,0.3-0.2,0.3s-0.2-0.1-0.2-0.3l-0.1-2l0.1-5.5
	c0-0.1,0.1-0.3,0.3-0.3c0.1,0,0.3,0.1,0.3,0.3l0,5.5L315,49.1z M322.5,49.3c0,0-7,0-7,0c-0.1,0-0.5-0.1-0.5-0.3v-7.8
	c0-0.1,0.3-0.2,0.5-0.3c0.5-0.2,1.1-0.3,1.7-0.3c2.3,0,4.2,1.7,4.4,4c0.3-0.1,0.6-0.2,1-0.2c1.4,0,2.5,1.1,2.5,2.5
	S323.9,49.3,322.5,49.3z"/>
<path fill="#FFFFFF" d="M209.9,32c0-1-0.7-2-1.7-2h-26.5c-1,0-1.7,0.7-1.7,1.7v26.6c0,0.9,0.7,1.7,1.7,1.7h26.6
	c0.9,0,1.7-0.7,1.7-1.7L209.9,32L209.9,32z M203.7,41.1c-1,5.4-6.3,9.9-7.9,11c-1.6,1-3.1-0.4-3.6-1.5c-0.6-1.3-2.4-8.1-2.9-8.6
	c-0.5-0.6-1.9,0.6-1.9,0.6l-0.7-0.9c0,0,2.9-3.5,5.1-3.9c2.3-0.5,2.3,3.6,2.9,5.8c0.5,2.2,0.9,3.4,1.4,3.4c0.5,0,1.4-1.2,2.4-3.1
	c1-1.9,0-3.5-2-2.3C197.3,36.9,204.7,35.8,203.7,41.1z"/>
<g>
	<path fill="#FFFFFF" d="M269.9,32c0-1-0.7-2-1.7-2h-26.5c-1,0-1.7,0.7-1.7,1.7v26.6c0,0.9,0.7,1.7,1.7,1.7h26.6
		c0.9,0,1.7-0.7,1.7-1.7L269.9,32L269.9,32z M264.6,45.2c-0.7,0.8-1.9,1.8-3.8,2.5c2,6.8-4.7,7.9-4.7,4.4c0,0.1,0-1.8,0-3.3
		c0,0-0.5-0.1-0.7-0.1c0,0-0.3,0-0.3,0c0,1.4,0,3.5,0,3.4c0,3.5-6.6,2.4-4.6-4.4c-1.9-0.7-2.9-1.7-3.6-2.5c-0.3-0.5,0.2-1,0.7-0.6
		c0.1,0-0.6,0.1,0.4,0.1v-7c0-1,0.3-1.7,1.2-1.7H262c0.9,0,2,0.7,2,1.7v6.9c0,0,0,0,0,0C264.6,44.2,264.9,44.8,264.6,45.2z"/>
	<path fill="#FFFFFF" d="M261.3,37H250c-1.1,0-1,0.2-1,1.5v6.8c2,1.3,4.2,1.1,5.4,1c0.2,0,0.2,0,0.4,0c0.1,0,0.3,0.1,0.5,0.3
		c0.2,0.2,0.4,0.4,0.6,0.5c0-0.6,0.4-0.9,1.2-0.8c1.2,0.1,2.8,0.3,5.8-1.1v-6.8C263,37.4,262.4,37,261.3,37z M253.1,45.5
		c-1.2,0-2.2-0.9-2.2-2.1s1-2.1,2.2-2.1c1.3,0,2.2,0.9,2.2,2.1S254.3,45.5,253.1,45.5z M258.3,45.5c-1.2,0-2.2-0.9-2.2-2.1
		s1-2.1,2.2-2.1s2.2,0.9,2.2,2.1S259.5,45.5,258.3,45.5z"/>
</g>
<path id="White_3_" fill="#0070BB" d="M28.3,60H1.7c-1,0-1.7,0.7-1.7,1.7v26.7C0,89.3,0.7,90,1.7,90H16V78h-4v-4h4v-3.5
	c0-3.9,2.2-6,5.7-6c1.7,0,3.3,0.1,3.3,0.2V69h-2.1c-1.8,0-1.9,0.7-1.9,2v3h4.2l-0.6,4H21v12h7.3c0.9,0,1.7-0.7,1.7-1.7V61.7
	C30,60.7,29.3,60,28.3,60z"/>
<path fill="#3FA9F5" d="M59.9,61.7c0-1-0.7-1.7-1.7-1.7H31.7c-1,0-1.7,0.7-1.7,1.7v26.6c0,0.9,0.7,1.7,1.7,1.7h26.6
	c0.9,0,1.7-0.7,1.7-1.7L59.9,61.7L59.9,61.7z M53.3,71.3c0,0.2,0,0.3,0,0.5c0,5-3.8,10.7-10.7,10.7c-2.1,0-4.1-0.6-5.8-1.7
	c0.3,0,0.6,0.1,0.9,0.1c1.8,0,3.4-0.6,4.7-1.6c-1.6,0-3-1.1-3.5-2.6c0.2,0,0.5,0.1,0.7,0.1c0.3,0,0.3,0,0.7-0.1
	C38.7,76.3,37,74.8,37,73l0,0c1,0.3,1.4,0.5,2,0.5c-1-0.7-1.5-1.8-1.5-3.1c0-0.7,0.3-1.3,0.6-1.9c1.9,2.3,4.7,3.8,7.8,3.9
	c-0.1-0.3-0.1-0.6-0.1-0.9c0-2.1,1.7-3.8,3.8-3.8c1.1,0,2.1,0.5,2.8,1.2c0.9-0.2,1.7-0.5,2.4-0.9c-0.3,0.9-0.9,1.6-1.7,2.1
	c0.8-0.1,1.5-0.3,2.2-0.6C54.7,70.1,54,70.7,53.3,71.3z"/>
<path fill="#EC1E79" d="M89.9,61.7c0-1-0.7-1.7-1.7-1.7H61.7c-1,0-1.7,0.7-1.7,1.7v26.6c0,0.9,0.7,1.7,1.7,1.7h26.6
	c0.9,0,1.7-0.7,1.7-1.7L89.9,61.7L89.9,61.7z M70,79.5c-2.4,0-4.3-1.9-4.3-4.3S67.6,71,70,71c2.4,0,4.3,1.9,4.3,4.3
	C74.3,77.5,72.4,79.5,70,79.5z M80.4,79.5c-2.4,0-4.3-1.9-4.3-4.3S78,71,80.4,71s4.3,1.9,4.3,4.3C84.7,77.5,82.8,79.5,80.4,79.5z"/>
<g>
	<path fill="#E52C26" d="M119.9,61.7c0-0.9-0.7-1.7-1.7-1.7H91.7c-1,0-1.7,0.7-1.7,1.7v26.6c0,0.9,0.7,1.7,1.7,1.7h26.6
		c0.9,0,1.7-0.7,1.7-1.7L119.9,61.7L119.9,61.7z M114.9,75.1c0,1.6-0.1,3.2-0.1,3.2s-0.1,1.4-0.7,2c-0.8,0.8-1.6,0.8-2,0.8
		c-2.8,0.2-6.9,0.2-6.9,0.2s-5.1,0-6.7-0.2c-0.4-0.1-1.4-0.1-2.2-0.8c-0.6-0.6-0.5-2-0.5-2s0.1-1.6,0.1-3.2v-1.5
		c0-1.6-0.1-3.2-0.1-3.2s0-1.4,0.6-2c0.8-0.8,1.5-0.8,1.9-0.9c2.8-0.2,6.8-0.2,6.8-0.2l0,0c0,0,4.1,0,6.9,0.2c0.4,0,1.2,0.1,2,0.9
		c0.6,0.6,0.7,2,0.7,2s0.1,1.6,0.1,3.2L114.9,75.1L114.9,75.1z"/>
	<g>
		<g id="Lozenge_2_">
			<g>
				<polygon fill="#E52C26" points="103.3,71.4 103.3,76.9 108.5,74.1 				"/>
			</g>
		</g>
	</g>
</g>
<g>
	<path fill="#3F6D94" d="M135,78c1.7,0,3-1.4,3-3c0-0.7-0.2-1.3-0.6-1.8c-0.5-0.8-1.4-1.3-2.4-1.3s-1.9,0.5-2.4,1.3
		c-0.4,0.5-0.6,1.1-0.6,1.8C132,76.7,133.3,78,135,78z"/>
	<path fill="#3F6D94" d="M139.7,74.8c0,2.6-2.1,4.8-4.7,4.8c-2.6,0-4.7-2.2-4.7-4.7c0-0.6,0.1-0.9,0.3-1.9H128v7.3
		c0,0.9,0.8,1.7,1.7,1.7h10.5c0.9,0,1.7-0.8,1.7-1.7V73h-2.7C139.6,74,139.7,74.2,139.7,74.8z"/>
	<path fill="#3F6D94" d="M149.9,62c0-1-0.7-2-1.7-2h-26.5c-1,0-1.7,0.7-1.7,1.7v26.6c0,0.9,0.7,1.7,1.7,1.7h26.6
		c0.9,0,1.7-0.7,1.7-1.7L149.9,62L149.9,62z M144,73.2v7c0,1.8-1.9,3.7-3.7,3.7h-10.5c-1.8,0-3.7-1.9-3.7-3.7v-7v-3.5
		c0-1.8,1.9-3.7,3.7-3.7h10.5c1.8,0,3.7,1.9,3.7,3.7V73.2z"/>
	<polygon fill="#3F6D94" points="138.9,68.4 138.9,71.3 142,71.3 142,68.8 142,68.4 141.4,68.4 	"/>
</g>
<path fill="#0976B4" d="M239.9,62c0-1-0.7-2-1.7-2h-26.5c-1,0-1.7,0.7-1.7,1.7v26.6c0,0.9,0.7,1.7,1.7,1.7h26.6
	c0.9,0,1.7-0.7,1.7-1.7L239.9,62L239.9,62z M220,83h-3V72h3V83z M218.5,70.9c-1.2,0-2-0.8-2-1.9s0.8-1.9,2-1.9s2,0.8,2,1.9
	S219.8,70.9,218.5,70.9z M234,83h-4v-5.7c0-1.4-0.7-2.4-2-2.4c-1,0-1.6,0.6-1.9,1.3c-0.1,0.2-0.1,0.6-0.1,0.9v6h-3.7
	c0,0,0.1-10,0-11h3.7v1.8c0-0.7,1.7-1.8,3.5-1.8c2.4,0,4.5,1.5,4.5,4.8V83z"/>
<path fill="#CC2127" d="M179.9,62c0-1-0.7-2-1.7-2h-26.5c-1,0-1.7,0.7-1.7,1.7v26.6c0,0.9,0.7,1.7,1.7,1.7h26.6
	c0.9,0,1.7-0.7,1.7-1.7L179.9,62L179.9,62z M165,84.5c-0.9,0-1.8-0.1-2.7-0.4c0.4-0.6,0.8-1.3,1-2c0.1-0.4,0.7-2.6,0.7-2.6
	c0.3,0.6,1.3,1.2,2.3,1.2c3,0,5.1-2.8,5.1-6.5c0-2.8-2.4-5.4-6-5.4c-4.5,0-6.8,3.2-6.8,5.9c0,1.6,0.6,3.1,1.9,3.6
	c0.2,0.1,0.4,0,0.5-0.2c0-0.2,0.1-0.6,0.2-0.8c0.1-0.2,0-0.3-0.1-0.5c-0.4-0.5-0.6-1-0.6-1.9c0-2.4,1.8-4.5,4.7-4.5
	c2.5,0,3.9,1.6,3.9,3.6c0,2.7-1.2,5-3,5c-1,0-1.7-0.8-1.5-1.8c0.3-1.2,0.8-2.5,0.8-3.4c0-0.8-0.4-1.4-1.3-1.4c-1,0-1.8,1-1.8,2.4
	c0,0.9,0.3,1.5,0.3,1.5s-1,4.4-1.2,5.2c-0.2,0.7-0.2,1.5-0.2,2.2c-3.3-1.5-5.7-4.8-5.7-8.7c0-5.2,4.2-9.5,9.5-9.5
	c5.2,0,9.5,4.2,9.5,9.5C174.5,80.2,170.2,84.5,165,84.5z"/>
<path fill="#135987" d="M299.9,62c0-1-0.7-2-1.7-2h-26.5c-1,0-1.7,0.7-1.7,1.7v26.6c0,0.9,0.7,1.7,1.7,1.7h26.6
	c0.9,0,1.7-0.7,1.7-1.7L299.9,62L299.9,62z M287.2,82.4c-1,1-2.2,1.5-3.7,1.5c-1.4,0-2.6-0.4-3.7-1.1c-1.1-0.8-1.9-1.9-2.5-3.4l0,0
	c0-0.2-0.1-0.3-0.1-0.5c0-1,0.9-1.9,1.9-1.9c1.1,0,1.9,0.9,1.9,1.9c0,0.5-0.2,1-0.6,1.4c0.8,0.9,1.7,1.3,2.9,1.3
	c0.8,0,1.5-0.2,2.1-0.7c0.5-0.5,0.8-1.1,0.8-1.9c0-0.4-0.1-0.9-0.4-1.4c-0.3-0.5-0.6-0.8-1.1-1.1c-0.4-0.3-1.1-0.6-2-1
	c-0.9-0.4-1.6-0.7-2.2-1c-0.5-0.3-0.9-0.7-1.3-1.1c-0.4-0.4-0.6-0.9-0.8-1.3c-0.2-0.4-0.3-0.9-0.3-1.4c0-1.2,0.5-2.2,1.4-3
	c1-0.8,2.1-1.3,3.5-1.3c0.9,0,1.8,0.2,2.8,0.6c0.8,0.3,1.4,0.8,2,1.4c0.4,0.3,0.7,0.9,0.7,1.4c0,1.1-0.9,1.9-1.9,1.9
	c-1.1,0-1.9-0.9-1.9-1.9c0-0.3,0.1-0.5,0.2-0.8c-0.4-0.2-0.9-0.3-1.6-0.3c-0.8,0-1.5,0.2-2,0.6c-0.5,0.4-0.8,0.8-0.8,1.4
	c0,0.5,0.2,0.9,0.7,1.3c0.4,0.4,1.2,0.8,2.3,1.3c1.1,0.5,1.9,0.9,2.5,1.3c0.6,0.4,1.1,0.8,1.5,1.3c0.4,0.5,0.7,1,0.9,1.5
	c0,0,0,0.1,0,0.1c-0.8,0.7-1.3,1.7-1.3,2.8c0,0.7,0.2,1.3,0.5,1.8C287.5,82.1,287.4,82.2,287.2,82.4z M290.4,82.3
	c-1.2,0-2.2-1-2.2-2.2s1-2.2,2.2-2.2c1.2,0,2.2,1,2.2,2.2C292.6,81.3,291.7,82.3,290.4,82.3z"/>
<path fill="#FD650C" d="M329.9,62c0-1-0.7-2-1.7-2h-26.5c-1,0-1.7,0.7-1.7,1.7v26.6c0,0.9,0.7,1.7,1.7,1.7h26.6
	c0.9,0,1.7-0.7,1.7-1.7L329.9,62L329.9,62z M305.3,78.1C305.3,78.2,305.3,78.2,305.3,78.1c-0.1,0.1-0.2,0-0.2,0L305,77l0.1-1.1
	c0,0,0-0.1,0.1-0.1c0,0,0.1,0,0.1,0.1l0.2,1.1L305.3,78.1z M306,78.8C306,78.8,306,78.9,306,78.8c-0.1,0.1-0.2,0-0.2,0l-0.2-1.8
	c0,0,0.2-1.8,0.2-1.8c0,0,0-0.1,0.1-0.1s0.1,0,0.1,0.1l0.2,1.8L306,78.8z M306.9,79.1c0,0.1,0,0.1-0.1,0.1c-0.1,0-0.1,0-0.1-0.1
	l-0.2-2.1c0,0,0.2-2.1,0.2-2.1c0-0.1,0-0.1,0.1-0.1c0.1,0,0.1,0,0.1,0.1l0.2,2.1L306.9,79.1z M307.7,79.2c0,0.1-0.1,0.1-0.1,0.1
	c-0.1,0-0.1,0-0.1-0.1l-0.2-2.1l0.2-2.2c0-0.1,0.1-0.1,0.1-0.1c0.1,0,0.1,0,0.1,0.1l0.2,2.2L307.7,79.2z M308.5,79.2L308.5,79.2
	c0,0.1-0.1,0.1-0.1,0.1c-0.1,0-0.1-0.1-0.1-0.1L308,77l0.2-2c0-0.1,0.1-0.1,0.1-0.1c0.1,0,0.1,0.1,0.1,0.1l0.2,2L308.5,79.2z
	 M309.3,79.2L309.3,79.2c0,0.1-0.1,0.1-0.2,0.1c-0.1,0-0.1-0.1-0.2-0.1l-0.2-2.1l0.2-3.3c0-0.1,0.1-0.1,0.2-0.1
	c0.1,0,0.1,0.1,0.2,0.1l0.2,3.3L309.3,79.2z M310,79.2L310,79.2c0,0.1,0,0.2-0.1,0.2s-0.1-0.1-0.1-0.2l-0.1-2.1l0.2-4.1
	c0-0.1,0.1-0.2,0.2-0.2c0.1,0,0.2,0.1,0.2,0.2l0.1,4.1L310,79.2z M311,79.1L311,79.1c0,0.1-0.1,0.2-0.2,0.2c-0.1,0-0.2-0.1-0.2-0.2
	l-0.1-2.1l0.1-4.4c0-0.1,0.1-0.2,0.2-0.2c0.1,0,0.2,0.1,0.2,0.2l0.2,4.4L311,79.1z M311.8,79.1L311.8,79.1c0,0.1-0.1,0.2-0.2,0.2
	c-0.1,0-0.2-0.1-0.2-0.2l-0.1-2.1l0.1-4.5c0-0.1,0.1-0.2,0.2-0.2c0.1,0,0.2,0.1,0.2,0.2l0.1,4.5L311.8,79.1z M313,79.1L313,79.1
	c0,0.1-0.3,0.2-0.4,0.2c-0.1,0-0.3-0.1-0.3-0.2l-0.2-2.1l0.1-4.4c0-0.1,0.1-0.2,0.2-0.2c0.1,0,0.2,0.1,0.2,0.2L313,77L313,79.1z
	 M314,79.1L314,79.1c0,0.1-0.4,0.2-0.5,0.2c-0.1,0-0.4-0.1-0.4-0.2L313,77l0.1-4.3c0-0.1,0.1-0.2,0.2-0.2c0.1,0,0.2,0.1,0.2,0.2
	l0.4,4.3L314,79.1z M314,79.1L314,79.1c0,0.1,0.1,0.3-0.1,0.3c-0.1,0-0.2-0.1-0.2-0.3c0,0,0-2,0-2l0.1-5.1c0-0.1,0.1-0.3,0.3-0.3
	c0.1,0,0.3,0.1,0.3,0.3l-0.1,5.1L314,79.1z M315,79.1L315,79.1c0,0.1,0,0.3-0.2,0.3s-0.2-0.1-0.2-0.3l-0.1-2l0.1-5.5
	c0-0.1,0.1-0.3,0.3-0.3c0.1,0,0.3,0.1,0.3,0.3l0,5.5L315,79.1z M322.5,79.3c0,0-7,0-7,0c-0.1,0-0.5-0.1-0.5-0.3v-7.8
	c0-0.1,0.3-0.2,0.5-0.3c0.5-0.2,1.1-0.3,1.7-0.3c2.3,0,4.2,1.7,4.4,4c0.3-0.1,0.6-0.2,1-0.2c1.4,0,2.5,1.1,2.5,2.5
	S323.9,79.3,322.5,79.3z"/>
<path fill="#1AB7EA" d="M209.9,62c0-1-0.7-2-1.7-2h-26.5c-1,0-1.7,0.7-1.7,1.7v26.6c0,0.9,0.7,1.7,1.7,1.7h26.6
	c0.9,0,1.7-0.7,1.7-1.7L209.9,62L209.9,62z M203.7,71.1c-1,5.4-6.3,9.9-7.9,11c-1.6,1-3.1-0.4-3.6-1.5c-0.6-1.3-2.4-8.1-2.9-8.6
	c-0.5-0.6-1.9,0.6-1.9,0.6l-0.7-0.9c0,0,2.9-3.5,5.1-3.9c2.3-0.5,2.3,3.6,2.9,5.8c0.5,2.2,0.9,3.4,1.4,3.4c0.5,0,1.4-1.2,2.4-3.1
	c1-1.9,0-3.5-2-2.3C197.3,66.9,204.7,65.8,203.7,71.1z"/>
<g>
	<path fill="#19A7A8" d="M269.9,62c0-1-0.7-2-1.7-2h-26.5c-1,0-1.7,0.7-1.7,1.7v26.6c0,0.9,0.7,1.7,1.7,1.7h26.6
		c0.9,0,1.7-0.7,1.7-1.7L269.9,62L269.9,62z M264.6,75.2c-0.7,0.8-1.9,1.8-3.8,2.5c2,6.8-4.7,7.9-4.7,4.4c0,0.1,0-1.8,0-3.3
		c0,0-0.5-0.1-0.7-0.1c0,0-0.3,0-0.3,0c0,1.4,0,3.5,0,3.4c0,3.5-6.6,2.4-4.6-4.4c-1.9-0.7-2.9-1.7-3.6-2.5c-0.3-0.5,0.2-1,0.7-0.6
		c0.1,0-0.6,0.1,0.4,0.1v-7c0-1,0.3-1.7,1.2-1.7H262c0.9,0,2,0.7,2,1.7v6.9c0,0,0,0,0,0C264.6,74.2,264.9,74.8,264.6,75.2z"/>
	<path fill="#19A7A8" d="M261.3,67H250c-1.1,0-1,0.2-1,1.5v6.8c2,1.3,4.2,1.1,5.4,1c0.2,0,0.2,0,0.4,0c0.1,0,0.3,0.1,0.5,0.3
		c0.2,0.2,0.4,0.4,0.6,0.5c0-0.6,0.4-0.9,1.2-0.8c1.2,0.1,2.8,0.3,5.8-1.1v-6.8C263,67.4,262.4,67,261.3,67z M253.1,75.5
		c-1.2,0-2.2-0.9-2.2-2.1s1-2.1,2.2-2.1c1.3,0,2.2,0.9,2.2,2.1S254.3,75.5,253.1,75.5z M258.3,75.5c-1.2,0-2.2-0.9-2.2-2.1
		s1-2.1,2.2-2.1s2.2,0.9,2.2,2.1S259.5,75.5,258.3,75.5z"/>
</g>
</svg>
